<svg xmlns="http://www.w3.org/2000/svg" viewBox="0 0 854.75 305"><defs><style>.cls-1{fill:#fff;}.cls-2{fill:#ed1c24;}</style></defs><g id="Layer_2" data-name="Layer 2"><g id="Layer_1-2" data-name="Layer 1"><circle class="cls-1" cx="152" cy="152.5" r="148"/><path class="cls-1" d="M432.24,70.45l-12.17,11.6q-12.42-13.12-27.94-13.12a30.62,30.62,0,0,0-31.05,31,32.61,32.61,0,0,0,4,16.23,28.47,28.47,0,0,0,11.24,11.14,32.66,32.66,0,0,0,16.14,4,33.19,33.19,0,0,0,13.84-2.83q6.27-2.84,13.79-10.29l11.79,12.31q-10.12,9.88-19.14,13.7a52.17,52.17,0,0,1-20.56,3.83q-21.32,0-34.9-13.52T343.68,99.94a47.33,47.33,0,0,1,6.19-24.3,45.9,45.9,0,0,1,17.71-17.09,49.91,49.91,0,0,1,24.82-6.46,52.63,52.63,0,0,1,39.84,18.36Z"/><path class="cls-1" d="M441.62,78.19h14.54V86.7a18.18,18.18,0,0,1,6.28-7.64A15.15,15.15,0,0,1,471,76.45a15.84,15.84,0,0,1,6.89,1.74l-5.28,14.6a11.71,11.71,0,0,0-4.91-1.49c-2.61,0-4.81,1.61-6.62,4.85s-2.7,9.57-2.7,19l.06,3.29V145.8H441.62Z"/><path class="cls-1" d="M554,116.9h-54.5a18.16,18.16,0,0,0,6.31,11.47q5.11,4.24,13.08,4.25A22.58,22.58,0,0,0,535.27,126l14.29,6.72a33.71,33.71,0,0,1-12.8,11.21,39.92,39.92,0,0,1-17.71,3.64q-15.9,0-25.91-10t-10-25.14q0-15.47,10-25.69t25-10.22q16,0,26,10.22t10,27Zm-17-13.36a17,17,0,0,0-6.63-9.2A19.21,19.21,0,0,0,519,90.8a20.33,20.33,0,0,0-12.45,4q-3.36,2.49-6.23,8.76Z"/><path class="cls-1" d="M617.67,78.19h17V145.8h-17v-7.15a33.3,33.3,0,0,1-10,6.81,28,28,0,0,1-10.83,2.08q-13.1,0-22.66-10.16t-9.55-25.26q0-15.66,9.24-25.67a29.47,29.47,0,0,1,22.47-10,28.42,28.42,0,0,1,11.42,2.3,31.16,31.16,0,0,1,9.87,6.89ZM599.84,92.11a17.14,17.14,0,0,0-13.07,5.56q-5.21,5.56-5.2,14.26t5.29,14.42a17.16,17.16,0,0,0,13,5.65,17.48,17.48,0,0,0,13.26-5.56q5.25-5.56,5.26-14.57,0-8.82-5.26-14.3A17.72,17.72,0,0,0,599.84,92.11Z"/><path class="cls-1" d="M653.84,53.27h17V78.19h10.06v14.6H670.81v53h-17v-53h-8.7V78.19h8.7Z"/><path class="cls-1" d="M721.7,76.45a35.82,35.82,0,0,1,18,4.78,34.45,34.45,0,0,1,13.14,13,34.89,34.89,0,0,1,4.73,17.71,35.51,35.51,0,0,1-4.76,17.9,34.24,34.24,0,0,1-12.95,13,35.88,35.88,0,0,1-18.09,4.69,33.7,33.7,0,0,1-24.82-10.35,34.33,34.33,0,0,1-10.29-25.14,35.43,35.43,0,0,1,35.05-35.6Zm.28,16a17.43,17.43,0,0,0-13.16,5.5q-5.27,5.49-5.26,14.07,0,8.83,5.19,14.3a18.64,18.64,0,0,0,26.43-.07q5.28-5.52,5.29-14.23t-5.2-14.14A17.58,17.58,0,0,0,722,92.42Z"/><path class="cls-1" d="M767.44,78.19H782V86.7a18.1,18.1,0,0,1,6.28-7.64,15.14,15.14,0,0,1,8.57-2.61,15.85,15.85,0,0,1,6.9,1.74l-5.28,14.6a11.75,11.75,0,0,0-4.91-1.49c-2.61,0-4.82,1.61-6.62,4.85s-2.7,9.57-2.7,19l.06,3.29V145.8H767.44Z"/><path class="cls-1" d="M853.51,87.63,843,98.13q-6.39-6.33-11.62-6.33A7.3,7.3,0,0,0,826.91,93a3.64,3.64,0,0,0-1.62,3,3.74,3.74,0,0,0,1,2.52,19.08,19.08,0,0,0,5.06,3.14l6.22,3.1q9.81,4.84,13.48,9.88a20.58,20.58,0,0,1-3,26.85q-6.61,6-17.74,6-14.79,0-23.61-11.56l10.44-11.37a23.9,23.9,0,0,0,7,5.62,15.46,15.46,0,0,0,7.11,2.15,8.48,8.48,0,0,0,5.41-1.62,4.68,4.68,0,0,0,2-3.73q0-3.91-7.4-7.64l-5.71-2.86q-16.41-8.27-16.41-20.7a18,18,0,0,1,6.18-13.7q6.19-5.68,15.82-5.68a27.46,27.46,0,0,1,22.25,11.18Z"/><path class="cls-1" d="M350.22,159.76h17.4v74.82H393v16.59H350.22Z"/><path class="cls-1" d="M454.25,183.56h17v67.61h-17V244a33.25,33.25,0,0,1-10,6.8,27.92,27.92,0,0,1-10.84,2.08q-13.09,0-22.65-10.16t-9.56-25.26q0-15.66,9.25-25.66a29.45,29.45,0,0,1,22.47-10,28.63,28.63,0,0,1,11.42,2.3,31,31,0,0,1,9.87,6.9Zm-17.84,13.92A17.14,17.14,0,0,0,423.35,203q-5.21,5.57-5.21,14.27t5.3,14.41a17.15,17.15,0,0,0,13,5.66,17.51,17.51,0,0,0,13.26-5.56q5.26-5.56,5.26-14.58,0-8.82-5.26-14.29A17.73,17.73,0,0,0,436.41,197.48Z"/><path class="cls-1" d="M505.21,157.46V191a31.75,31.75,0,0,1,9.94-6.9,28.64,28.64,0,0,1,11.43-2.3,29.52,29.52,0,0,1,22.5,10q9.25,10,9.26,25.66,0,15.1-9.57,25.26t-22.68,10.16a28.15,28.15,0,0,1-10.88-2.08,33,33,0,0,1-10-6.8v7.14H488.36V157.46Zm17.83,40a17.74,17.74,0,0,0-13.3,5.47q-5.28,5.48-5.28,14.29,0,9,5.28,14.58a17.6,17.6,0,0,0,13.3,5.56,17.24,17.24,0,0,0,13.08-5.66q5.31-5.66,5.31-14.41T536.21,203A17.32,17.32,0,0,0,523,197.48Z"/><path class="cls-2" d="M152.5,305C68.41,305,0,236.59,0,152.5S68.41,0,152.5,0,305,68.41,305,152.5,236.59,305,152.5,305Zm0-295.38C73.72,9.62,9.62,73.72,9.62,152.5S73.72,295.38,152.5,295.38s142.88-64.1,142.88-142.88S231.28,9.62,152.5,9.62Z"/><polygon class="cls-2" points="246.89 119.84 246.89 207.04 228.08 217.9 228.01 217.86 228.01 217.94 209.2 228.79 209.13 228.76 209.13 228.84 190.32 239.69 190.26 239.66 190.26 239.74 171.45 250.6 171.38 250.55 171.38 250.63 152.57 261.49 152.5 261.45 133.69 250.6 133.62 250.55 114.81 239.69 114.74 239.65 95.94 228.79 95.86 228.76 77.06 217.9 95.86 207.04 95.94 207 114.74 217.86 114.74 217.94 114.81 217.9 133.62 228.76 133.62 228.84 133.69 228.79 152.5 239.65 152.5 239.74 152.57 239.69 171.38 228.84 171.45 228.79 171.45 228.79 190.26 217.94 190.32 217.9 209.13 207.04 209.2 207 228.01 196.14 228.09 196.1 228.01 196.06 228.01 174.34 228.09 174.3 228.01 174.26 228.01 152.54 228.09 152.5 228.01 152.46 228.01 130.75 228.09 130.7 246.89 119.84"/><path class="cls-2" d="M228.08,87.1l-.07,0v-.08L209.2,76.21l-.07,0v-.08L190.32,65.3l-.06,0v-.08L171.45,54.4l-.07.05v-.08L152.57,43.51l-.07,0L133.69,54.4l-.07.05L114.82,65.3l-.08,0L95.94,76.21l-.07,0L77.06,87.1l-.07,0L58.18,98l-.07,0v21.72l.07,0-.07,0v21.72l.07,0-.07,0v21.72l.07,0-.07,0v21.72l.07,0-.07,0V207l.07,0L77,196.14v-.08l.06,0,18.82-10.86v-.08l.06,0,18.81,10.86.08,0L133.62,207l.07,0,18.81,10.86.07,0L171.38,207V207l.07,0,18.81-10.86v-.08l.06,0,18.81-10.86v-21.8l-18.8,10.86-.07,0L171.45,185.2l-.07,0L152.57,196.1l-.07,0v-.08L133.69,185.2l-.07,0v-.08L114.81,174.3l-.07,0V130.66l.07,0,18.81-10.86v-.08l.07,0,18.81-10.86v-.08l.07,0,18.81,10.86.07,0,18.81,10.86.07,0,18.8-10.86v-.08l.08,0L228,108.94v-.08l.07,0L246.89,98V98ZM209.13,98,190.32,108.9l-.06,0v-.08L171.45,98l-.07,0V98L152.57,87.1l-.07,0L133.69,98l-.07,0-18.8,10.86-.08,0L95.93,119.8l-.06,0v21.72l.06,0-.06,0v21.72l.06,0-.06,0L77.05,174.3l-.06,0V108.86l.06,0L95.87,98V98l.07,0,18.8-10.86v-.08l.08,0,18.8-10.85v-.09l.07,0L152.5,65.35v-.09l.07,0,18.81,10.86.07,0,18.81,10.85.06,0L209.13,98l.07,0Z"/></g></g></svg>